<?xml version="1.0" encoding="UTF-8"?>
<svg version="1.1" xmlns="http://www.w3.org/2000/svg" width="500" height="500">
<path d="M0 0 C14.08741803 12.51902151 24.8377454 26.75718037 34.31640625 42.96484375 C34.67331543 43.56876953 35.03022461 44.17269531 35.39794922 44.79492188 C58.48157016 84.30488651 63.90040137 133.34843052 52.97314453 177.48632812 C48.17496806 195.59453909 41.07649478 212.4663227 31.10986328 228.32177734 C29.00008595 231.40400353 29.00008595 231.40400353 28.31640625 234.96484375 C29.15937256 235.37847168 30.00233887 235.79209961 30.87084961 236.21826172 C33.99109902 237.752853 37.10859338 239.29277666 40.22436523 240.83642578 C41.57453302 241.50395731 42.92576897 242.16933281 44.27807617 242.83251953 C46.21947209 243.78506362 48.15691935 244.7452454 50.09375 245.70703125 C51.26156006 246.28308105 52.42937012 246.85913086 53.63256836 247.45263672 C56.31640625 248.96484375 56.31640625 248.96484375 57.31640625 250.96484375 C37.35774205 253.74035107 17.38646272 256.37754979 -2.62109375 258.77734375 C-3.99113556 258.94343643 -3.99113556 258.94343643 -5.38885498 259.11288452 C-7.99576306 259.42815807 -10.60321917 259.73838331 -13.2109375 260.046875 C-13.98131851 260.14038239 -14.75169952 260.23388977 -15.54542542 260.33023071 C-19.61518618 260.80433958 -23.58663913 261.05998994 -27.68359375 260.96484375 C-26.33067203 232.60935331 -24.59851747 204.2876785 -22.68359375 175.96484375 C-19.68359375 176.96484375 -19.68359375 176.96484375 -18.38085938 179.1262207 C-17.95482422 180.05909912 -17.52878906 180.99197754 -17.08984375 181.953125 C-16.38021484 183.47776367 -16.38021484 183.47776367 -15.65625 185.03320312 C-14.92728516 186.63905273 -14.92728516 186.63905273 -14.18359375 188.27734375 C-13.21889415 190.37946769 -12.25028627 192.47980347 -11.27734375 194.578125 C-10.63829102 195.98251831 -10.63829102 195.98251831 -9.98632812 197.4152832 C-8.75129476 199.8323472 -7.38121365 201.85428091 -5.68359375 203.96484375 C13.51602778 170.04876104 19.04897588 133.02306974 8.859375 95.0390625 C-0.34352291 63.41433817 -20.83934956 35.61405458 -48.68359375 17.96484375 C-49.79089844 17.2584375 -50.89820313 16.55203125 -52.0390625 15.82421875 C-82.29972037 -2.42271419 -119.60039041 -7.73477956 -153.88134766 0.58862305 C-188.69921115 9.57150575 -219.66867717 30.69804537 -238.41601562 61.76757812 C-257.2897079 94.48391682 -262.70741052 131.41763971 -253.4296875 168.09765625 C-250.44676419 179.09463744 -246.19829501 189.02025548 -240.68359375 198.96484375 C-240.10609375 200.04378906 -239.52859375 201.12273437 -238.93359375 202.234375 C-233.17163508 212.62457363 -225.5145591 221.22895026 -217.43359375 229.87109375 C-215.68359375 231.96484375 -215.68359375 231.96484375 -214.68359375 234.96484375 C-215.6875 237.8359375 -215.6875 237.8359375 -217.24609375 241.40234375 C-221.16922189 250.68785415 -223.92116639 260.28351937 -226.68359375 269.96484375 C-226.88662109 270.67382812 -227.08964844 271.3828125 -227.29882812 272.11328125 C-227.7614898 273.73016206 -228.22272386 275.3474513 -228.68359375 276.96484375 C-232.81522867 275.25520171 -235.9725966 272.36245231 -239.30859375 269.46484375 C-240.24119019 268.65635986 -240.24119019 268.65635986 -241.19262695 267.83154297 C-260.37299941 251.05768275 -274.97381226 231.03297774 -285.68359375 207.96484375 C-286.21726562 206.84851563 -286.7509375 205.7321875 -287.30078125 204.58203125 C-306.0549894 163.47824862 -307.2018702 113.19934305 -291.68359375 70.96484375 C-289.29251581 64.83280418 -286.56817678 58.87837778 -283.68359375 52.96484375 C-283.37196289 52.31708984 -283.06033203 51.66933594 -282.73925781 51.00195312 C-275.28726419 35.68790909 -265.37852018 22.29079139 -253.68359375 9.96484375 C-252.63277843 8.7225247 -251.58986285 7.47343561 -250.55859375 6.21484375 C-224.39138663 -24.60802972 -178.88430049 -43.41739432 -139.39501953 -46.87182617 C-86.70394341 -50.0458159 -39.79832135 -34.88767307 0 0 Z " fill="#0297D9" transform="translate(371.68359375,117.03515625)"/>
<path d="M0 0 C22.57148048 20.35960673 38.57764713 53.2003207 41.69213867 83.41088867 C41.45874023 85.94848633 41.45874023 85.94848633 40.69213867 88.41088867 C38.98413086 89.78540039 38.98413086 89.78540039 36.73901367 90.84057617 C35.90289551 91.24002441 35.06677734 91.63947266 34.20532227 92.05102539 C33.29347168 92.45853027 32.38162109 92.86603516 31.44213867 93.28588867 C30.50063965 93.71788574 29.55914062 94.14988281 28.58911133 94.5949707 C-16.91546836 114.98992202 -67.80753581 116.74157252 -114.57739258 99.31713867 C-122.77872816 96.11004421 -130.97163692 92.30170495 -138.30786133 87.41088867 C-138.17642495 55.66900428 -120.04972488 23.82595134 -98.58911133 1.59448242 C-70.08969127 -25.85716484 -29.424384 -25.45207 0 0 Z " fill="#313646" transform="translate(298.307861328125,318.589111328125)"/>
<path d="M0 0 C8.1676351 6.5959841 13.95654057 15.6553949 15.578125 26.08203125 C16.36478432 39.31908714 14.91387161 49.44604063 6.578125 60.08203125 C-1.71828362 69.18784559 -10.75606337 74.1080716 -22.98046875 75.33984375 C-34.13145293 75.82537281 -44.8916366 72.30764495 -53.421875 65.08203125 C-62.82271046 56.25209672 -66.8444491 45.84765453 -67.41748047 33.10595703 C-67.44243736 21.61192019 -63.01595667 12.03766936 -55.24609375 3.765625 C-39.6928999 -10.82053089 -17.62046813 -11.95674623 0 0 Z " fill="#313646" transform="translate(275.421875,208.91796875)"/>
<path d="M0 0 C1.50046875 0.00386719 1.50046875 0.00386719 3.03125 0.0078125 C4.0315625 0.00523438 5.031875 0.00265625 6.0625 0 C8.53125 0.1328125 8.53125 0.1328125 9.53125 1.1328125 C9.61972743 3.65375326 9.64652301 6.14712143 9.62890625 8.66796875 C9.6274913 9.42121933 9.62607635 10.17446991 9.62461853 10.95054626 C9.61900376 13.3655081 9.60644883 15.78037851 9.59375 18.1953125 C9.5887369 19.82877471 9.58417366 21.46223836 9.58007812 23.09570312 C9.56902954 27.10810835 9.55175506 31.12044491 9.53125 35.1328125 C5.24125 35.1328125 0.95125 35.1328125 -3.46875 35.1328125 C-3.4934019 30.30900448 -3.51158693 25.48523283 -3.52368164 20.66137695 C-3.52872174 19.01911786 -3.53555378 17.37686327 -3.54418945 15.73461914 C-3.55626926 13.37905771 -3.56198139 11.02355541 -3.56640625 8.66796875 C-3.57156754 7.92942154 -3.57672882 7.19087433 -3.58204651 6.4299469 C-3.5822425 4.66383162 -3.53069719 2.89784104 -3.46875 1.1328125 C-2.46875 0.1328125 -2.46875 0.1328125 0 0 Z " fill="#313646" transform="translate(246.46875,122.8671875)"/>
<path d="M0 0 C2.95514876 2.75134539 5.1524809 5.39733775 7 9 C7 9.99 7 10.98 7 12 C3.07478195 14.31000203 -0.85788147 16.60653996 -4.7980957 18.89086914 C-6.13780163 19.67007757 -7.47538719 20.45294339 -8.81079102 21.23950195 C-10.72909523 22.36854472 -12.65460451 23.48427685 -14.58203125 24.59765625 C-15.17901321 24.952798 -15.77599518 25.30793976 -16.3910675 25.67384338 C-17.8849858 26.52805755 -19.43990096 27.27366352 -21 28 C-24 27 -24 27 -25.38671875 24.71484375 C-25.81597656 23.79832031 -26.24523437 22.88179687 -26.6875 21.9375 C-27.12449219 21.01839844 -27.56148438 20.09929687 -28.01171875 19.15234375 C-28.33785156 18.44207031 -28.66398437 17.73179687 -29 17 C-28.29915283 16.59160889 -27.59830566 16.18321777 -26.8762207 15.76245117 C-23.68812172 13.90446349 -20.50030814 12.04598665 -17.3125 10.1875 C-16.20970703 9.54490234 -15.10691406 8.90230469 -13.97070312 8.24023438 C-12.90400391 7.61826172 -11.83730469 6.99628906 -10.73828125 6.35546875 C-9.75899658 5.78465576 -8.77971191 5.21384277 -7.77075195 4.62573242 C-5.17047259 3.10002441 -2.58226915 1.55595627 0 0 Z " fill="#313644" transform="translate(355,181)"/>
<path d="M0 0 C4.8706084 4.8706084 7.82349155 10.13227246 11.25 16.0625 C11.8996875 17.16400391 12.549375 18.26550781 13.21875 19.40039062 C13.83234375 20.45548828 14.4459375 21.51058594 15.078125 22.59765625 C15.63918945 23.56195557 16.20025391 24.52625488 16.77832031 25.51977539 C18 28 18 28 18 31 C16.56988027 31.86646667 15.13059381 32.71781829 13.6875 33.5625 C12.48673828 34.27599609 12.48673828 34.27599609 11.26171875 35.00390625 C9 36 9 36 6 35 C4.29833984 32.54736328 4.29833984 32.54736328 2.4609375 29.3203125 C2.13461334 28.7517453 1.80828918 28.1831781 1.47207642 27.59738159 C0.78377288 26.3943295 0.099823 25.18877761 -0.58007812 23.98095703 C-1.61977175 22.13428625 -2.67184497 20.29515475 -3.7265625 18.45703125 C-8.8306358 9.50809261 -8.8306358 9.50809261 -10 6 C-6.7 4.02 -3.4 2.04 0 0 Z " fill="#313645" transform="translate(191,137)"/>
<path d="M0 0 C1.65376718 0.73233973 3.29787304 1.48652714 4.9375 2.25 C5.85402344 2.66765625 6.77054687 3.0853125 7.71484375 3.515625 C10 5 10 5 10.93383789 6.93701172 C11.01562969 9.48734637 10.45255539 10.59290201 9.12109375 12.7578125 C8.69683105 13.46172119 8.27256836 14.16562988 7.83544922 14.89086914 C7.37412598 15.62813232 6.91280273 16.36539551 6.4375 17.125 C5.97875488 17.87966553 5.52000977 18.63433105 5.04736328 19.41186523 C4.13053703 20.9184486 3.20873997 22.42201943 2.28173828 23.92236328 C0.61806306 26.6191016 -1.0039773 29.33996308 -2.625 32.0625 C-3.41585286 33.37549052 -4.20713329 34.68822459 -5 36 C-9.23686665 35.10950811 -12.30041239 33.20552339 -16 31 C-15.40707556 26.6600738 -13.82672208 23.58676119 -11.62109375 19.82421875 C-11.28956802 19.25419632 -10.9580423 18.68417389 -10.61647034 18.09687805 C-9.56342937 16.28978899 -8.5006655 14.48864725 -7.4375 12.6875 C-6.71874965 11.45806287 -6.00064367 10.2282488 -5.28320312 8.99804688 C-3.52957186 5.99429916 -1.767178 2.99580256 0 0 Z " fill="#303544" transform="translate(307,137)"/>
<path d="M0 0 C10.50111164 4.95521206 20.25079008 10.70732815 30 17 C28.51911112 20.77948596 26.84952557 24.3850182 25 28 C18.93943905 26.85653202 13.68284166 23.10619806 8.375 20.125 C7.20587679 19.48020102 6.03660742 18.83566697 4.8671875 18.19140625 C3.76375 17.57394531 2.6603125 16.95648438 1.5234375 16.3203125 C0.51200684 15.75586426 -0.49942383 15.19141602 -1.54150391 14.60986328 C-4 13 -4 13 -6 10 C-4.02 6.7 -2.04 3.4 0 0 Z " fill="#313645" transform="translate(143,181)"/>
<path d="M0 0 C0.86646667 1.43011973 1.71781829 2.86940619 2.5625 4.3125 C3.03816406 5.11300781 3.51382813 5.91351563 4.00390625 6.73828125 C5 9 5 9 4 12 C2.36108398 13.17919922 2.36108398 13.17919922 0.24609375 14.3046875 C-0.9130957 14.93310547 -0.9130957 14.93310547 -2.09570312 15.57421875 C-2.90974609 16.00347656 -3.72378906 16.43273437 -4.5625 16.875 C-6.14829802 17.7243955 -7.73294237 18.57594852 -9.31640625 19.4296875 C-10.09773926 19.84702148 -10.87907227 20.26435547 -11.68408203 20.69433594 C-14.63614425 22.35864426 -17.41959175 24.23597838 -20.19116211 26.18408203 C-22 27 -22 27 -24.05688477 26.94873047 C-26.87943283 25.5706149 -27.46583823 23.75552166 -28.75 20.9375 C-29.39195312 19.55884766 -29.39195312 19.55884766 -30.046875 18.15234375 C-30.36140625 17.44207031 -30.6759375 16.73179687 -31 16 C-30.3294458 15.62190186 -29.6588916 15.24380371 -28.96801758 14.85424805 C-25.91578326 13.13269816 -22.86413646 11.41010942 -19.8125 9.6875 C-18.75740234 9.09259766 -17.70230469 8.49769531 -16.61523438 7.88476562 C-15.59365234 7.30791016 -14.57207031 6.73105469 -13.51953125 6.13671875 C-12.58214111 5.60780029 -11.64475098 5.07888184 -10.67895508 4.53393555 C-8.87454586 3.50075382 -7.09525452 2.42257539 -5.3425293 1.30395508 C-3 0 -3 0 0 0 Z " fill="#313645" transform="translate(168,291)"/>
<path d="M0 0 C11.55 0 23.1 0 35 0 C35 3.96 35 7.92 35 12 C23.45 12 11.9 12 0 12 C0 8.04 0 4.08 0 0 Z " fill="#313645" transform="translate(123,244)"/>
<path d="M0 0 C11.22 0 22.44 0 34 0 C34 3.96 34 7.92 34 12 C22.78 12 11.56 12 0 12 C0 8.04 0 4.08 0 0 Z " fill="#313645" transform="translate(342,244)"/>
<path d="M0 0 C6.19909665 0.63273538 11.79672359 2.3881458 17.6875 4.375 C18.62400391 4.67921875 19.56050781 4.9834375 20.52539062 5.296875 C21.42837891 5.59851563 22.33136719 5.90015625 23.26171875 6.2109375 C24.07600342 6.48212402 24.89028809 6.75331055 25.72924805 7.03271484 C28.14479676 8.0616799 29.97074149 9.34670241 32 11 C29.03 10.505 29.03 10.505 26 10 C25.67 10.99 25.34 11.98 25 13 C22.525 12.505 22.525 12.505 20 12 C20.99 11.34 21.98 10.68 23 10 C21.2984375 9.566875 21.2984375 9.566875 19.5625 9.125 C18.386875 8.75375 17.21125 8.3825 16 8 C15.67 7.34 15.34 6.68 15 6 C14.34 6 13.68 6 13 6 C13 5.34 13 4.68 13 4 C11.7315625 4.0928125 11.7315625 4.0928125 10.4375 4.1875 C6.26380157 3.95984372 3.74567053 2.79792186 0 1 C0 0.67 0 0.34 0 0 Z " fill="#1C92C9" transform="translate(291,75)"/>
<path d="M0 0 C3.21926207 4.82889311 3.04837795 9.53272479 2.9375 15.1875 C3.00359108 19.21905569 3.44012734 23.01090731 4 27 C2.00528746 23.35385103 0.73309098 19.49540675 -0.5625 15.5625 C-0.78357422 14.90701172 -1.00464844 14.25152344 -1.23242188 13.57617188 C-2.39437922 10.07625806 -3.37648677 6.6359929 -4 3 C-3.01 3.33 -2.02 3.66 -1 4 C-0.67 2.68 -0.34 1.36 0 0 Z " fill="#0D96D1" transform="translate(379,191)"/>
<path d="M0 0 C-0.33 0.66 -0.66 1.32 -1 2 C-3.6953125 2.34375 -3.6953125 2.34375 -7.125 2.5 C-13.53064409 2.90035276 -18.56755891 3.37837261 -24 7 C-26.48046875 6.9765625 -26.48046875 6.9765625 -29.1875 6.625 C-30.53908203 6.45871094 -30.53908203 6.45871094 -31.91796875 6.2890625 C-32.94857422 6.14597656 -32.94857422 6.14597656 -34 6 C-29.62616355 3.63285147 -25.21670912 2.83763731 -20.375 1.875 C-19.09689453 1.60236328 -19.09689453 1.60236328 -17.79296875 1.32421875 C-11.79659102 0.11768586 -6.10911787 -0.22092979 0 0 Z " fill="#1D94C7" transform="translate(235,71)"/>
<path d="M0 0 C0.33 0 0.66 0 1 0 C1.04898437 0.96421875 1.09796875 1.9284375 1.1484375 2.921875 C1.22320312 4.18515625 1.29796875 5.4484375 1.375 6.75 C1.44460938 8.00296875 1.51421875 9.2559375 1.5859375 10.546875 C1.95988847 13.66548494 2.55437488 15.30988021 4 18 C3.67 18.66 3.34 19.32 3 20 C2.34 20 1.68 20 1 20 C-0.485 25.445 -0.485 25.445 -2 31 C-2.99276692 27.02893232 -2.90568555 25.55349763 -2.125 21.6875 C-0.80513651 14.47284077 -0.37978198 7.3158002 0 0 Z " fill="#1891C8" transform="translate(386,251)"/>
<path d="M0 0 C4.17443363 3.50074982 8.3145494 6.97950843 12 11 C12 11.66 12 12.32 12 13 C10.35 12.67 8.7 12.34 7 12 C7 10.68 7 9.36 7 8 C6.05125 7.9175 5.1025 7.835 4.125 7.75 C1 7 1 7 -0.4375 5.125 C-1 3 -1 3 0 0 Z M-2 5 C-1.34 5.66 -0.68 6.32 0 7 C-0.66 7 -1.32 7 -2 7 C-2 6.34 -2 5.68 -2 5 Z " fill="#1093CE" transform="translate(373,119)"/>
<path d="M0 0 C0.66 -0.33 1.32 -0.66 2 -1 C4.6723621 -1.13415472 7.32250488 -1.04318541 10 -1 C10 -0.67 10 -0.34 10 0 C6.9595402 0.81706167 3.91743317 1.6278202 0.875 2.4375 C0.0190625 2.66759766 -0.836875 2.89769531 -1.71875 3.13476562 C-6.12947383 4.30530387 -10.47452542 5.35456346 -15 6 C-14.34 5.67 -13.68 5.34 -13 5 C-13 4.01 -13 3.02 -13 2 C-8.02478404 -0.48760798 -5.56529515 -1.29425469 0 0 Z " fill="#1A94C8" transform="translate(215,116)"/>
<path d="M0 0 C3.3692629 1.51383932 6.0163196 3.48369961 8.875 5.8125 C10.18210937 6.87404297 10.18210937 6.87404297 11.515625 7.95703125 C14.35495012 10.29188508 17.18814609 12.63212302 20 15 C18 16 18 16 15.5 15.875 C14.2625 15.441875 14.2625 15.441875 13 15 C12.7525 14.2575 12.505 13.515 12.25 12.75 C10.2607257 8.37359653 6.19594164 7.02890182 2 5 C2 4.01 2 3.02 2 2 C1.34 2 0.68 2 0 2 C0 1.34 0 0.68 0 0 Z " fill="#1891C3" transform="translate(353,103)"/>
<path d="M0 0 C1.84790538 3.31016094 2.74541487 6.57173491 3.625 10.25 C3.88539062 11.32765625 4.14578125 12.4053125 4.4140625 13.515625 C4.60742188 14.33546875 4.80078125 15.1553125 5 16 C4.34 16 3.68 16 3 16 C3 14.68 3 13.36 3 12 C2.38125 12.185625 1.7625 12.37125 1.125 12.5625 C-1 13 -1 13 -3 12 C-2.67 9.36 -2.34 6.72 -2 4 C-1.34 4 -0.68 4 0 4 C0 2.68 0 1.36 0 0 Z " fill="#0C95D3" transform="translate(116,280)"/>
<path d="M0 0 C0.66 0 1.32 0 2 0 C-0.13766171 7.244298 -3.22684019 13.46718285 -7 20 C-7.66 19.34 -8.32 18.68 -9 18 C-8.8125 16 -8.8125 16 -8 14 C-7.01 13.34 -6.02 12.68 -5 12 C-4.42251197 10.03638136 -4.42251197 10.03638136 -4.3125 7.875 C-4.209375 6.59625 -4.10625 5.3175 -4 4 C-2.68 3.67 -1.36 3.34 0 3 C0 2.01 0 1.02 0 0 Z " fill="#1B93C9" transform="translate(415,316)"/>
<path d="M0 0 C0.66 0.66 1.32 1.32 2 2 C1.67 2.99 1.34 3.98 1 5 C0.90524608 7.02952166 0.86927776 9.06201869 0.8671875 11.09375 C0.86589844 12.28871094 0.86460937 13.48367187 0.86328125 14.71484375 C0.86714844 15.96394531 0.87101563 17.21304688 0.875 18.5 C0.87113281 19.74910156 0.86726562 20.99820313 0.86328125 22.28515625 C0.86457031 23.48011719 0.86585938 24.67507812 0.8671875 25.90625 C0.86831543 27.00259766 0.86944336 28.09894531 0.87060547 29.22851562 C0.8783507 32.08778531 0.8783507 32.08778531 2 35 C1.01 35 0.02 35 -1 35 C-1.0246519 30.17619198 -1.04283693 25.35242033 -1.05493164 20.52856445 C-1.05997174 18.88630536 -1.06680378 17.24405077 -1.07543945 15.60180664 C-1.08751926 13.24624521 -1.09323139 10.89074291 -1.09765625 8.53515625 C-1.10281754 7.79660904 -1.10797882 7.05806183 -1.11329651 6.2971344 C-1.1134925 4.53101912 -1.06194719 2.76502854 -1 1 C-0.67 0.67 -0.34 0.34 0 0 Z " fill="#2F303B" transform="translate(244,123)"/>
<path d="M0 0 C0.66 0.33 1.32 0.66 2 1 C0.576875 1.86625 0.576875 1.86625 -0.875 2.75 C-4.31786548 4.86148203 -4.31786548 4.86148203 -6 9 C-8.97 8.67 -11.94 8.34 -15 8 C-11.96943208 5.55831021 -8.90981404 3.86972611 -5.375 2.25 C-4.41335937 1.80140625 -3.45171875 1.3528125 -2.4609375 0.890625 C-1.64882812 0.59671875 -0.83671875 0.3028125 0 0 Z " fill="#1594CC" transform="translate(181,83)"/>
<path d="M0 0 C2.97 0.33 5.94 0.66 9 1 C9.33 1.99 9.66 2.98 10 4 C9.34 4 8.68 4 8 4 C10.475 7.465 10.475 7.465 13 11 C9.54691313 9.48729451 7.04375621 7.45279358 4.25 4.9375 C3.45078125 4.22464844 2.6515625 3.51179688 1.828125 2.77734375 C1.22484375 2.19082031 0.6215625 1.60429687 0 1 C0 0.67 0 0.34 0 0 Z " fill="#1393CB" transform="translate(125,379)"/>
<path d="M0 0 C1.39035371 4.17106112 -0.09769194 7.18206859 -1.4375 11.1875 C-1.68048828 11.93708984 -1.92347656 12.68667969 -2.17382812 13.45898438 C-2.77465056 15.30857501 -3.38629678 17.15464327 -4 19 C-4.33 19 -4.66 19 -5 19 C-4.98839844 18.37351562 -4.97679687 17.74703125 -4.96484375 17.1015625 C-4.95582031 16.28429687 -4.94679687 15.46703125 -4.9375 14.625 C-4.92009766 13.40683594 -4.92009766 13.40683594 -4.90234375 12.1640625 C-4.85533666 9.95062858 -4.85533666 9.95062858 -6 8 C-4.625 6.5 -4.625 6.5 -3 5 C-2.34 5 -1.68 5 -1 5 C-0.67 3.35 -0.34 1.7 0 0 Z " fill="#1894CD" transform="translate(150,364)"/>
<path d="M0 0 C0.33 0 0.66 0 1 0 C0.67 5.61 0.34 11.22 0 17 C-0.99 17 -1.98 17 -3 17 C-3.33 17.99 -3.66 18.98 -4 20 C-4.66 20 -5.32 20 -6 20 C-4 13.33333333 -2 6.66666667 0 0 Z " fill="#1E91C3" transform="translate(382,283)"/>
<path d="M0 0 C0.33 0 0.66 0 1 0 C1.22151549 1.79008467 1.42682213 3.58218162 1.625 5.375 C1.74101563 6.37273437 1.85703125 7.37046875 1.9765625 8.3984375 C1.98429687 9.25695312 1.99203125 10.11546875 2 11 C1.34 11.66 0.68 12.32 0 13 C-0.67940467 15.42715206 -0.67940467 15.42715206 -1.125 18.125 C-1.29257813 19.03507812 -1.46015625 19.94515625 -1.6328125 20.8828125 C-1.75398438 21.58148438 -1.87515625 22.28015625 -2 23 C-2.33 23 -2.66 23 -3 23 C-2.53430878 15.1812896 -1.77541538 7.63600985 0 0 Z " fill="#1D92C7" transform="translate(74,208)"/>
<path d="M0 0 C0 3.54709938 -0.57762678 4.01780191 -2.875 6.5625 C-3.40867188 7.16191406 -3.94234375 7.76132813 -4.4921875 8.37890625 C-5.63671654 9.60942322 -6.81169896 10.81169896 -8 12 C-9.00023253 8.81744196 -9.15774716 7.38560417 -7.875 4.25 C-5.62895656 1.55474787 -4.40930051 1.35887374 -1 1 C-0.67 0.67 -0.34 0.34 0 0 Z " fill="#1693C8" transform="translate(146,159)"/>
<path d="M0 0 C0.99 0.66 1.98 1.32 3 2 C0.03 4.97 -2.94 7.94 -6 11 C-6.33 9.68 -6.66 8.36 -7 7 C-6.34 6.34 -5.68 5.68 -5 5 C-4.01 5 -3.02 5 -2 5 C-2.33 4.01 -2.66 3.02 -3 2 C-2.01 1.34 -1.02 0.68 0 0 Z " fill="#1294CA" transform="translate(157,145)"/>
<path d="M0 0 C6.09534117 2.88210297 11.62961655 5.91383868 17 10 C15 11 15 11 13.1875 10.875 C10.08442859 9.63377143 8.35156408 7.35156408 6 5 C2.83354526 3.20679176 2.83354526 3.20679176 0 2 C0 1.34 0 0.68 0 0 Z " fill="#2290BC" transform="translate(336,92)"/>
<path d="M0 0 C6.93 0 13.86 0 21 0 C21.33 0.99 21.66 1.98 22 3 C14.74 2.34 7.48 1.68 0 1 C0 0.67 0 0.34 0 0 Z " fill="#1E93C8" transform="translate(257,113)"/>
<path d="M0 0 C3.2531655 3.74114033 5.44374911 8.31315138 7 13 C6.67 13.66 6.34 14.32 6 15 C3 11.375 3 11.375 3 8 C2.34 8 1.68 8 1 8 C0.67 5.36 0.34 2.72 0 0 Z " fill="#1E92C3" transform="translate(408,165)"/>
<path d="M0 0 C-1.38956025 3.35810395 -2.82526467 5.18586552 -6 7 C-8.75 7.1875 -8.75 7.1875 -11 7 C-4.48275862 0 -4.48275862 0 0 0 Z " fill="#1692CA" transform="translate(159,95)"/>
<path d="M0 0 C1 2 2 4 3 6 C1.68 6 0.36 6 -1 6 C-2.20628008 8.33214148 -3.1654738 10.49642139 -4 13 C-4.66 13 -5.32 13 -6 13 C-4.31326082 8.50202887 -2.18326108 4.27113698 0 0 Z " fill="#1B93CA" transform="translate(372,310)"/>
<path d="M0 0 C3 1 3 1 4.16796875 2.99609375 C4.50441406 3.80175781 4.84085937 4.60742188 5.1875 5.4375 C5.53167969 6.24058594 5.87585938 7.04367187 6.23046875 7.87109375 C7 10 7 10 7 12 C6.34 12 5.68 12 5 12 C4.67 10.35 4.34 8.7 4 7 C2.68 6.67 1.36 6.34 0 6 C0 4.02 0 2.04 0 0 Z " fill="#2299C4" transform="translate(349,293)"/>
<path d="M0 0 C2.64 0 5.28 0 8 0 C4.17058011 3.32993034 -0.37522222 5.05324525 -5 7 C-5 6.34 -5 5.68 -5 5 C-4.360625 4.731875 -3.72125 4.46375 -3.0625 4.1875 C-0.66868314 3.11332248 -0.66868314 3.11332248 0 0 Z " fill="#1C94C4" transform="translate(187,124)"/>
<path d="M0 0 C5.41538462 -0.36923077 5.41538462 -0.36923077 8.375 1.5 C8.91125 1.995 9.4475 2.49 10 3 C7.03 2.505 7.03 2.505 4 2 C3.67 2.99 3.34 3.98 3 5 C1.35 4.67 -0.3 4.34 -2 4 C-1.01 3.34 -0.02 2.68 1 2 C0.67 1.34 0.34 0.68 0 0 Z " fill="#0E94CB" transform="translate(313,83)"/>
<path d="M0 0 C0.598125 0.309375 1.19625 0.61875 1.8125 0.9375 C4.08956772 2.10209704 4.08956772 2.10209704 7 3 C7.33 4.65 7.66 6.3 8 8 C6.85073734 7.04578192 5.70569459 6.08647955 4.5625 5.125 C3.92441406 4.59132813 3.28632812 4.05765625 2.62890625 3.5078125 C1 2 1 2 0 0 Z M8 -1 C8.33 -0.01 8.66 0.98 9 2 C8.01 2 7.02 2 6 2 C7 0 7 0 8 -1 Z " fill="#1693C9" transform="translate(117,371)"/>
<path d="M0 0 C1.65 0 3.3 0 5 0 C4.34 0.66 3.68 1.32 3 2 C2.53837573 4.43252661 2.53837573 4.43252661 2.375 7.125 C2.30023438 8.03507813 2.22546875 8.94515625 2.1484375 9.8828125 C2.09945312 10.58148438 2.05046875 11.28015625 2 12 C1.34 12 0.68 12 0 12 C0 8.04 0 4.08 0 0 Z " fill="#2A303D" transform="translate(123,244)"/>
<path d="M0 0 C2.8125 0.625 2.8125 0.625 6 2 C7.875 5.125 7.875 5.125 9 8 C8.01 8 7.02 8 6 8 C4.39453125 6.25 4.39453125 6.25 2.8125 4 C2.28269531 3.2575 1.75289063 2.515 1.20703125 1.75 C0.80871094 1.1725 0.41039063 0.595 0 0 Z " fill="#1A93C6" transform="translate(109,362)"/>
<path d="M0 0 C0.79921875 0.11085938 1.5984375 0.22171875 2.421875 0.3359375 C3.32679688 0.47902344 3.32679688 0.47902344 4.25 0.625 C0.79785147 2.92643236 0.01520676 2.76333854 -3.9375 2.25 C-5.28908203 2.08371094 -5.28908203 2.08371094 -6.66796875 1.9140625 C-7.35503906 1.81867188 -8.04210937 1.72328125 -8.75 1.625 C-5.5750906 -0.2828584 -3.64414789 -0.5359041 0 0 Z " fill="#1095CA" transform="translate(209.75,75.375)"/>
<path d="M0 0 C0.66 0.33 1.32 0.66 2 1 C1.21654285 2.17219543 0.42297164 3.33763668 -0.375 4.5 C-0.81585938 5.1496875 -1.25671875 5.799375 -1.7109375 6.46875 C-2.13632812 6.9740625 -2.56171875 7.479375 -3 8 C-3.66 8 -4.32 8 -5 8 C-4.67 6.68 -4.34 5.36 -4 4 C-3.34 4 -2.68 4 -2 4 C-2.33 3.01 -2.66 2.02 -3 1 C-2.01 0.67 -1.02 0.34 0 0 Z " fill="#1892CD" transform="translate(401,344)"/>
<path d="M0 0 C0.99 0.99 1.98 1.98 3 3 C3 4.32 3 5.64 3 7 C1.02 7.99 1.02 7.99 -1 9 C-0.67 6.03 -0.34 3.06 0 0 Z " fill="#0E96CF" transform="translate(405,160)"/>
<path d="M0 0 C0.66 1.32 1.32 2.64 2 4 C1.38125 4.04125 0.7625 4.0825 0.125 4.125 C-0.57625 4.41375 -1.2775 4.7025 -2 5 C-3.3045656 7.99615946 -3.3045656 7.99615946 -4 11 C-4.66 11 -5.32 11 -6 11 C-4.54955729 6.89041233 -2.48889248 3.56741255 0 0 Z " fill="#1994CB" transform="translate(101,148)"/>
<path d="M0 0 C2.8125 -0.3125 2.8125 -0.3125 6 0 C7.75 2.3125 7.75 2.3125 9 5 C9.99 6.485 9.99 6.485 11 8 C6.99698968 6.23867546 3.3971023 3.73867517 0 1 C0 0.67 0 0.34 0 0 Z " fill="#1E94C3" transform="translate(326,136)"/>
<path d="M0 0 C4.75481646 0.57634139 7.97048212 2.55068521 12 5 C9 6 9 6 6 5 C6 4.34 6 3.68 6 3 C5.195625 2.87625 4.39125 2.7525 3.5625 2.625 C2.716875 2.41875 1.87125 2.2125 1 2 C0.67 1.34 0.34 0.68 0 0 Z " fill="#1F92C1" transform="translate(323,86)"/>
<path d="M0 0 C0.99 0.33 1.98 0.66 3 1 C3 1.99 3 2.98 3 4 C3.66 4.33 4.32 4.66 5 5 C4.67 6.65 4.34 8.3 4 10 C1.7448078 7.7448078 1.02276532 5.9952413 0 3 C0 2.01 0 1.02 0 0 Z " fill="#1E93CB" transform="translate(375,194)"/>
<path d="M0 0 C0.66 0 1.32 0 2 0 C1.54917531 1.46067199 1.08906463 2.91848032 0.625 4.375 C0.36976562 5.18710938 0.11453125 5.99921875 -0.1484375 6.8359375 C-1 9 -1 9 -3 11 C-3.3227506 6.37390802 -2.84450614 3.71973879 0 0 Z " fill="#1E91C5" transform="translate(124,191)"/>
<path d="M0 0 C0.66 0 1.32 0 2 0 C1.34 2.97 0.68 5.94 0 9 C-4 7 -4 7 -5 5 C-2.525 5.495 -2.525 5.495 0 6 C0 4.02 0 2.04 0 0 Z " fill="#2894C3" transform="translate(143,385)"/>
<path d="M0 0 C1.88391785 3.26545761 2.49287967 6.28111761 3 10 C2.34 9.67 1.68 9.34 1 9 C1 8.34 1 7.68 1 7 C0.01 6.67 -0.98 6.34 -2 6 C-2 5.34 -2 4.68 -2 4 C-1.34 4 -0.68 4 0 4 C0 2.68 0 1.36 0 0 Z " fill="#1793C6" transform="translate(116,280)"/>
<path d="M0 0 C2.4375 1.3125 2.4375 1.3125 3.25 3.4375 C3.311875 4.05625 3.37375 4.675 3.4375 5.3125 C0.06246331 4.1266763 -2.20972731 3.03676311 -4.5625 0.3125 C-2.5625 -0.6875 -2.5625 -0.6875 0 0 Z " fill="#1A94C7" transform="translate(322.5625,130.6875)"/>
<path d="M0 0 C0.433125 0.474375 0.86625 0.94875 1.3125 1.4375 C3.02309613 3.23686957 3.02309613 3.23686957 6 4 C4.02 4.99 2.04 5.98 0 7 C-0.38133299 5.0085944 -0.71325582 3.00720923 -1 1 C-0.67 0.67 -0.34 0.34 0 0 Z " fill="#1493C8" transform="translate(171,131)"/>
<path d="M0 0 C2.04119788 1.61594832 4.04072937 3.2856382 6 5 C6 5.66 6 6.32 6 7 C4.35 6.67 2.7 6.34 1 6 C0.67 4.02 0.34 2.04 0 0 Z " fill="#1B95C8" transform="translate(379,125)"/>
<path d="M0 0 C2.74277578 3.19990508 4.6302836 6.00499382 6 10 C3.5625 8.9375 3.5625 8.9375 1 7 C0.1875 3.3125 0.1875 3.3125 0 0 Z " fill="#1C94C3" transform="translate(131,318)"/>
<path d="M0 0 C1.13643966 3.40931897 0.86747764 4.00335456 -0.4375 7.1875 C-0.86869141 8.26064453 -0.86869141 8.26064453 -1.30859375 9.35546875 C-1.53675781 9.89816406 -1.76492188 10.44085938 -2 11 C-2.33 11 -2.66 11 -3 11 C-3.36923077 4.6 -3.36923077 4.6 -1.5 1.5625 C-1.005 1.046875 -0.51 0.53125 0 0 Z " fill="#2195C8" transform="translate(420,304)"/>
<path d="M0 0 C1.32 0.66 2.64 1.32 4 2 C1.36 3.65 -1.28 5.3 -4 7 C-4 5.68 -4 4.36 -4 3 C-2.68 3 -1.36 3 0 3 C0 2.01 0 1.02 0 0 Z " fill="#1F92C3" transform="translate(167,137)"/>
<path d="M0 0 C0.33 0 0.66 0 1 0 C1.25 3.3125 1.25 3.3125 1 7 C-0.32 7.99 -1.64 8.98 -3 10 C-2.01 6.7 -1.02 3.4 0 0 Z " fill="#1E91C5" transform="translate(82,183)"/>
<path d="M0 0 C0.66 0.99 1.32 1.98 2 3 C1.67 3.66 1.34 4.32 1 5 C0.34 4.67 -0.32 4.34 -1 4 C-1 4.66 -1 5.32 -1 6 C-2.32 5.67 -3.64 5.34 -5 5 C-3.35 3.35 -1.7 1.7 0 0 Z " fill="#1993C3" transform="translate(133,112)"/>
<path d="M0 0 C1.65 0 3.3 0 5 0 C5.66 2.31 6.32 4.62 7 7 C5.83040013 6.02433888 4.66438823 5.044375 3.5 4.0625 C2.8503125 3.51722656 2.200625 2.97195312 1.53125 2.41015625 C1.0259375 1.94480469 0.520625 1.47945312 0 1 C0 0.67 0 0.34 0 0 Z " fill="#2193CA" transform="translate(345,152)"/>
</svg>
