<?xml version="1.0" encoding="UTF-8"?>
<svg version="1.1" xmlns="http://www.w3.org/2000/svg" width="500" height="500">
<path d="M0 0 C14.08741803 12.51902151 24.8377454 26.75718037 34.31640625 42.96484375 C34.67331543 43.56876953 35.03022461 44.17269531 35.39794922 44.79492188 C58.48360343 84.30836666 63.90114329 133.35468612 52.96875 177.49511719 C47.97814114 196.38920373 40.44718444 214.22476407 29.75 230.59375 C28.14394114 232.78829427 28.14394114 232.78829427 28.31640625 234.96484375 C29.15937256 235.37847168 30.00233887 235.79209961 30.87084961 236.21826172 C33.99109902 237.752853 37.10859338 239.29277666 40.22436523 240.83642578 C41.57453302 241.50395731 42.92576897 242.16933281 44.27807617 242.83251953 C46.21947209 243.78506362 48.15691935 244.7452454 50.09375 245.70703125 C51.26156006 246.28308105 52.42937012 246.85913086 53.63256836 247.45263672 C56.31640625 248.96484375 56.31640625 248.96484375 57.31640625 250.96484375 C37.35774205 253.74035107 17.38646272 256.37754979 -2.62109375 258.77734375 C-3.99113556 258.94343643 -3.99113556 258.94343643 -5.38885498 259.11288452 C-7.99576306 259.42815807 -10.60321917 259.73838331 -13.2109375 260.046875 C-13.98131851 260.14038239 -14.75169952 260.23388977 -15.54542542 260.33023071 C-19.61518618 260.80433958 -23.58663913 261.05998994 -27.68359375 260.96484375 C-26.33067203 232.60935331 -24.59851747 204.2876785 -22.68359375 175.96484375 C-19.68359375 176.96484375 -19.68359375 176.96484375 -18.38085938 179.1262207 C-17.95482422 180.05909912 -17.52878906 180.99197754 -17.08984375 181.953125 C-16.38021484 183.47776367 -16.38021484 183.47776367 -15.65625 185.03320312 C-14.92728516 186.63905273 -14.92728516 186.63905273 -14.18359375 188.27734375 C-13.21889415 190.37946769 -12.25028627 192.47980347 -11.27734375 194.578125 C-10.63829102 195.98251831 -10.63829102 195.98251831 -9.98632812 197.4152832 C-8.75129476 199.8323472 -7.38121365 201.85428091 -5.68359375 203.96484375 C13.51602778 170.04876104 19.04897588 133.02306974 8.859375 95.0390625 C-0.34352291 63.41433817 -20.83934956 35.61405458 -48.68359375 17.96484375 C-49.79089844 17.2584375 -50.89820313 16.55203125 -52.0390625 15.82421875 C-82.29972037 -2.42271419 -119.60039041 -7.73477956 -153.88134766 0.58862305 C-188.69921115 9.57150575 -219.66867717 30.69804537 -238.41601562 61.76757812 C-257.08760127 94.13357789 -262.933243 131.47694795 -253.43359375 167.83984375 C-246.27026017 193.62572453 -232.91932179 213.72372386 -214.68359375 232.96484375 C-216.31936005 237.8823662 -217.96310359 242.79695565 -219.62109375 247.70703125 C-220.3086358 249.75128794 -220.99613516 251.79555899 -221.68359375 253.83984375 C-222.02648437 254.85175781 -222.369375 255.86367188 -222.72265625 256.90625 C-224.94703764 263.53694413 -226.92104123 270.19670886 -228.68359375 276.96484375 C-232.72533153 275.06975055 -235.89440171 272.43628198 -239.24609375 269.52734375 C-239.86669678 268.98875732 -240.4872998 268.4501709 -241.12670898 267.89526367 C-256.90779196 254.07237288 -269.62765068 238.39032951 -279.68359375 219.96484375 C-280.19913818 219.02439209 -280.19913818 219.02439209 -280.72509766 218.06494141 C-290.16960784 200.59858071 -295.95883117 182.43134571 -299.68359375 162.96484375 C-299.93109375 161.70285156 -300.17859375 160.44085938 -300.43359375 159.140625 C-306.18066381 122.86224523 -299.68305725 85.76451387 -283.68359375 52.96484375 C-283.37196289 52.31708984 -283.06033203 51.66933594 -282.73925781 51.00195312 C-275.28726419 35.68790909 -265.37852018 22.29079139 -253.68359375 9.96484375 C-252.63277843 8.7225247 -251.58986285 7.47343561 -250.55859375 6.21484375 C-224.39138663 -24.60802972 -178.88430049 -43.41739432 -139.39501953 -46.87182617 C-86.70394341 -50.0458159 -39.79832135 -34.88767307 0 0 Z " fill="#0297D9" transform="translate(371.68359375,117.03515625)"/>
<path d="M0 0 C24.60935838 19.71497138 38.3902852 48.30663268 45.734375 78.44921875 C45.99226807 79.50351074 45.99226807 79.50351074 46.25537109 80.57910156 C47.17818269 84.58855885 47.5950196 88.27613775 47.421875 92.38671875 C6.49498585 115.49652428 -42.43528956 123.20037194 -88.22998047 111.04345703 C-102.22456583 107.12939645 -115.73666811 102.23152775 -128.578125 95.38671875 C-129.39152344 94.95875 -130.20492187 94.53078125 -131.04296875 94.08984375 C-132.578125 92.38671875 -132.578125 92.38671875 -132.92578125 89.1796875 C-132.56662177 85.26121723 -131.94383627 81.51499601 -131.015625 77.69921875 C-130.83854004 76.97009277 -130.66145508 76.2409668 -130.47900391 75.48974609 C-122.83517565 45.27842487 -107.19704771 12.76607534 -79.46459961 -3.81347656 C-53.60689039 -18.69610936 -24.19201815 -18.33196492 0 0 Z " fill="#D9D9D9" transform="translate(292.578125,313.61328125)"/>
<path d="M0 0 C8.36845289 6.25976191 14.18756582 14.63079252 16.75 24.8125 C18.57826771 39.12843021 15.91049722 50.78642333 7.0078125 62.30078125 C-0.32388906 70.45698212 -9.87757561 75.09323908 -20.7734375 76.15625 C-33.51527367 76.48792469 -44.10920977 73.19145433 -53.703125 64.62109375 C-61.75291385 56.31808306 -66.22641494 46.31486513 -66.5 34.6875 C-66.30326709 22.98189178 -61.93173667 12.85424621 -54.25 4.125 C-39.15613083 -10.1548178 -16.93234442 -10.93229445 0 0 Z " fill="#D9D9D9" transform="translate(274.25,208.1875)"/>
<path d="M0 0 C0.98871094 -0.02578125 1.97742188 -0.0515625 2.99609375 -0.078125 C3.84300781 0.03015625 4.68992188 0.1384375 5.5625 0.25 C8.03667002 3.96125503 7.80721623 5.86228795 7.79296875 10.2890625 C7.79228142 11.31125381 7.79228142 11.31125381 7.7915802 12.35409546 C7.78856368 13.79141994 7.7806953 15.22874133 7.76831055 16.66601562 C7.75000983 18.87381471 7.74780123 21.08119535 7.74804688 23.2890625 C7.7099806 34.1025194 7.7099806 34.1025194 6.5625 35.25 C4.56450428 35.34873816 2.56292842 35.37971799 0.5625 35.375 C-0.530625 35.37757813 -1.62375 35.38015625 -2.75 35.3828125 C-5.4375 35.25 -5.4375 35.25 -6.4375 34.25 C-6.53832764 31.81339554 -6.57722603 29.40575299 -6.5703125 26.96875 C-6.57126923 26.24006714 -6.57222595 25.51138428 -6.57321167 24.76062012 C-6.57389335 23.2172029 -6.57203988 21.67378283 -6.56787109 20.13037109 C-6.56252262 17.760026 -6.56781642 15.38987041 -6.57421875 13.01953125 C-6.57355797 11.52343708 -6.5722768 10.02734303 -6.5703125 8.53125 C-6.57233673 7.81771362 -6.57436096 7.10417725 -6.57644653 6.36901855 C-6.5470561 0.23965681 -6.03042206 0.09410281 0 0 Z " fill="#D8D9D9" transform="translate(249.4375,122.75)"/>
<path d="M0 0 C4.5206665 -0.02468857 9.0412939 -0.04285449 13.56201172 -0.05493164 C15.10043013 -0.05996552 16.63884375 -0.06679308 18.17724609 -0.07543945 C20.38640526 -0.08754639 22.59550126 -0.09323769 24.8046875 -0.09765625 C25.49432587 -0.10281754 26.18396423 -0.10797882 26.89450073 -0.11329651 C31.77225659 -0.11387171 31.77225659 -0.11387171 34 1 C34.08086147 2.79093191 34.13912702 4.58289628 34.1875 6.375 C34.23970703 7.87160156 34.23970703 7.87160156 34.29296875 9.3984375 C34.19628906 10.25695312 34.09960938 11.11546875 34 12 C30.34241461 14.43839026 28.56950756 14.24503475 24.21484375 14.23046875 C23.22950401 14.22978142 23.22950401 14.22978142 22.22425842 14.2290802 C20.8382079 14.22606376 19.45216058 14.21819559 18.06616211 14.20581055 C15.94177278 14.18753675 13.81781916 14.18530107 11.69335938 14.18554688 C1.29521349 14.14760674 1.29521349 14.14760674 -1 13 C-1.484375 11.07421875 -1.484375 11.07421875 -1.75 8.6875 C-1.84796875 7.90761719 -1.9459375 7.12773437 -2.046875 6.32421875 C-1.99358985 3.68216342 -1.23514388 2.29759747 0 0 Z " fill="#D9D9D9" transform="translate(343,243)"/>
<path d="M0 0 C4.77576339 0.4682121 8.04476345 1.24331998 12 4 C11.4694162 8.41802948 10.42626839 11.49284992 8.12890625 15.29296875 C7.55462891 16.25267578 6.98035156 17.21238281 6.38867188 18.20117188 C5.78603516 19.18666016 5.18339844 20.17214844 4.5625 21.1875 C3.96373047 22.18458984 3.36496094 23.18167969 2.74804688 24.20898438 C0.55601228 27.84928371 -1.64268435 31.46402653 -4 35 C-8.19360449 34.32902328 -11.40334352 32.1441606 -15 30 C-14.49023854 25.05753023 -13.01405036 21.95487722 -10.3125 17.8125 C-9.58750953 16.68117996 -8.86489014 15.54833728 -8.14453125 14.4140625 C-7.78439941 13.84848633 -7.42426758 13.28291016 -7.05322266 12.70019531 C-4.50233904 8.58235723 -2.26430975 4.27988851 0 0 Z " fill="#D9D9D9" transform="translate(306,138)"/>
<path d="M0 0 C1.62158203 1.96191406 1.62158203 1.96191406 3.0078125 4.515625 C3.51957031 5.43730469 4.03132813 6.35898438 4.55859375 7.30859375 C5.07550781 8.27925781 5.59242188 9.24992188 6.125 10.25 C7.16918714 12.15108764 8.21345542 14.05213071 9.2578125 15.953125 C9.7130127 16.80036133 10.16821289 17.64759766 10.63720703 18.52050781 C11.59862032 20.26972195 12.61772524 21.9878205 13.67602539 23.68017578 C15 26 15 26 14.92578125 28.1640625 C13.7227733 30.54977447 12.56887557 31.1997757 10.1875 32.375 C9.50042969 32.73335937 8.81335938 33.09171875 8.10546875 33.4609375 C6 34 6 34 4.08642578 33.37670898 C-0.51032162 30.34358722 -2.70390171 24.39666483 -5.3125 19.6875 C-6.29959961 17.97530273 -6.29959961 17.97530273 -7.30664062 16.22851562 C-7.92345703 15.12572266 -8.54027344 14.02292969 -9.17578125 12.88671875 C-9.74208252 11.87826904 -10.30838379 10.86981934 -10.8918457 9.83081055 C-12.14559136 6.62808288 -12.20562487 5.19638042 -11 2 C-7.04214348 -0.69853854 -4.55169451 -1.56165428 0 0 Z " fill="#D8D8D9" transform="translate(194,139)"/>
<path d="M0 0 C1.3984375 1.48828125 1.3984375 1.48828125 2.375 3.3125 C2.71273437 3.90675781 3.05046875 4.50101562 3.3984375 5.11328125 C4.18807319 7.58986592 3.98946464 8.59116151 3 11 C0.76269531 12.72338867 0.76269531 12.72338867 -2.171875 14.41796875 C-3.22890625 15.03220703 -4.2859375 15.64644531 -5.375 16.27929688 C-7.045625 17.22385742 -7.045625 17.22385742 -8.75 18.1875 C-9.84828125 18.82880859 -10.9465625 19.47011719 -12.078125 20.13085938 C-21.0377923 25.27940606 -21.0377923 25.27940606 -26 26 C-26.87244765 24.95245905 -27.72236674 23.88613078 -28.5625 22.8125 C-29.03816406 22.22082031 -29.51382813 21.62914062 -30.00390625 21.01953125 C-31 19 -31 19 -30.89916992 16.61157227 C-29.65141479 12.98756015 -27.86417167 12.1559771 -24.609375 10.1953125 C-23.50722656 9.53015625 -22.40507812 8.865 -21.26953125 8.1796875 C-20.69154785 7.84291992 -20.11356445 7.50615234 -19.51806641 7.15917969 C-17.7564592 6.12877812 -16.01701143 5.06693056 -14.27734375 4 C-4.73244788 -1.66693468 -4.73244788 -1.66693468 0 0 Z " fill="#D8D9D9" transform="translate(169,292)"/>
<path d="M0 0 C4.59229201 0.53816918 7.81257555 1.73766982 11.80078125 4.0546875 C13.38922852 4.97701172 13.38922852 4.97701172 15.00976562 5.91796875 C16.09966797 6.56378906 17.18957031 7.20960938 18.3125 7.875 C19.42173828 8.51308594 20.53097656 9.15117187 21.67382812 9.80859375 C29.87285112 14.61855335 29.87285112 14.61855335 31 18 C30.00390625 20.26171875 30.00390625 20.26171875 28.5625 22.6875 C28.08941406 23.49574219 27.61632812 24.30398437 27.12890625 25.13671875 C26.75636719 25.75160156 26.38382813 26.36648437 26 27 C21.72871661 26.41198861 18.75769013 24.90481249 15.078125 22.69140625 C13.97082031 22.02689453 12.86351562 21.36238281 11.72265625 20.67773438 C11.15305176 20.33057373 10.58344727 19.98341309 9.99658203 19.62573242 C8.2468068 18.56055614 6.48933877 17.50905969 4.73046875 16.45898438 C-3.86749516 11.26500969 -3.86749516 11.26500969 -5 9 C-4.00390625 6.8359375 -4.00390625 6.8359375 -2.5625 4.375 C-2.08941406 3.55773437 -1.61632812 2.74046875 -1.12890625 1.8984375 C-0.75636719 1.27195313 -0.38382813 0.64546875 0 0 Z " fill="#D9D9D9" transform="translate(142,182)"/>
<path d="M0 0 C3.21443372 1.60721686 4.37400912 3.86846201 6 7 C5.86962891 9.53100586 5.86962891 9.53100586 5 12 C3.16162109 13.51391602 3.16162109 13.51391602 0.7734375 14.75390625 C-0.09410156 15.21603516 -0.96164062 15.67816406 -1.85546875 16.15429688 C-3.22638672 16.85135742 -3.22638672 16.85135742 -4.625 17.5625 C-6.4090219 18.5009833 -8.19287906 19.43977984 -9.9765625 20.37890625 C-10.83411133 20.81992676 -11.69166016 21.26094727 -12.57519531 21.71533203 C-14.75881407 22.87221905 -16.85468566 24.11211215 -18.9609375 25.40234375 C-19.96382813 25.92957031 -20.96671875 26.45679688 -22 27 C-25.66336097 25.77887968 -26.35042014 24.13279518 -28.23046875 20.88671875 C-29 19 -29 19 -29 15 C-25.25091908 12.87337542 -21.5005779 10.74898318 -17.75 8.625 C-16.68652344 8.02171875 -15.62304688 7.4184375 -14.52734375 6.796875 C-12.99013672 5.92675781 -12.99013672 5.92675781 -11.421875 5.0390625 C-10.47924805 4.50490723 -9.53662109 3.97075195 -8.56542969 3.42041016 C-2.38776212 0 -2.38776212 0 0 0 Z " fill="#D8D8D8" transform="translate(356,182)"/>
<path d="M0 0 C0.65784988 -0.00095673 1.31569977 -0.00191345 1.9934845 -0.00289917 C3.37773739 -0.00357743 4.76199352 -0.00174791 6.14624023 0.00244141 C8.27269539 0.0078205 10.39894179 0.00247138 12.52539062 -0.00390625 C13.87109422 -0.00324591 15.21679768 -0.00196566 16.5625 0 C17.78864014 0.00112793 19.01478027 0.00225586 20.27807617 0.00341797 C23.08203125 0.1328125 23.08203125 0.1328125 24.08203125 1.1328125 C24.15447178 3.15245449 24.16580313 5.17448374 24.14453125 7.1953125 C24.13550781 8.30003906 24.12648437 9.40476563 24.1171875 10.54296875 C24.10558594 11.39761719 24.09398437 12.25226563 24.08203125 13.1328125 C19.54760773 15.40002426 13.24776913 14.317837 8.26953125 14.3203125 C6.34270508 14.33868164 6.34270508 14.33868164 4.37695312 14.35742188 C3.13880859 14.35935547 1.90066406 14.36128906 0.625 14.36328125 C-1.07619995 14.36944458 -1.07619995 14.36944458 -2.81176758 14.37573242 C-5.91796875 14.1328125 -5.91796875 14.1328125 -10.91796875 12.1328125 C-10.91796875 8.5028125 -10.91796875 4.8728125 -10.91796875 1.1328125 C-7.03791715 0.1627996 -3.98000452 0.00365114 0 0 Z " fill="#D9D9D9" transform="translate(133.91796875,242.8671875)"/>
<path d="M0 0 C0.33 0 0.66 0 1 0 C1.02688151 1.64574566 1.04634123 3.29161413 1.0625 4.9375 C1.07410156 5.85402344 1.08570313 6.77054687 1.09765625 7.71484375 C1 10 1 10 0 11 C-0.23075082 12.34747084 -0.41153063 13.70377565 -0.5625 15.0625 C-0.706875 16.361875 -0.85125 17.66125 -1 19 C-1.66 19 -2.32 19 -3 19 C-3.02578125 19.66386719 -3.0515625 20.32773437 -3.078125 21.01171875 C-3.43954789 26.63841596 -3.93747113 29.8105171 -8 34 C-8.33 34.99 -8.66 35.98 -9 37 C-9.66 37 -10.32 37 -11 37 C-9.50939912 32.50431589 -8.00913912 28.01271672 -6.46484375 23.53515625 C-3.79339707 15.74015244 -1.31630852 8.16111283 0 0 Z " fill="#1593CC" transform="translate(384,273)"/>
<path d="M0 0 C0.33 0 0.66 0 1 0 C1.19327988 4.44696509 1.37183208 8.89421186 1.53710938 13.34228516 C1.59529564 14.85351169 1.65741433 16.36459239 1.72363281 17.87548828 C1.81844546 20.05474264 1.89882544 22.23414014 1.9765625 24.4140625 C2.02893066 25.7232666 2.08129883 27.0324707 2.13525391 28.38134766 C2.00048182 31.98710902 1.32313737 34.66280371 0 38 C1.32 38.33 2.64 38.66 4 39 C2.02 39 0.04 39 -2 39 C-1.34 26.13 -0.68 13.26 0 0 Z " fill="#1F93C7" transform="translate(346,339)"/>
<path d="M0 0 C0.66 0.33 1.32 0.66 2 1 C2 2.98 2 4.96 2 7 C2.66 7 3.32 7 4 7 C4.97454029 8.59096637 5.88027783 10.22439825 6.75 11.875 C9.17238592 16.13831665 9.17238592 16.13831665 13.375 18.625 C14.674375 18.810625 14.674375 18.810625 16 19 C15.46228519 22.37992169 14.85696068 25.68737889 14 29 C13.43152344 27.94941406 12.86304688 26.89882812 12.27734375 25.81640625 C8.03588858 18.07282367 3.80081352 10.71476807 -2 4 C-1.34 3.67 -0.68 3.34 0 3 C0 2.01 0 1.02 0 0 Z " fill="#1B91C6" transform="translate(358,161)"/>
<path d="M0 0 C5.69139902 1.09698167 10.74567937 2.54053077 16 5 C15.38125 5.144375 14.7625 5.28875 14.125 5.4375 C11.96741678 5.93152225 11.96741678 5.93152225 10 7 C7.3276379 7.13415472 4.67749512 7.04318541 2 7 C1.67 6.01 1.34 5.02 1 4 C1.66 4 2.32 4 3 4 C3 3.34 3 2.68 3 2 C2.01 2 1.02 2 0 2 C0 1.34 0 0.68 0 0 Z M0 6 C0.66 6.66 1.32 7.32 2 8 C1.34 8 0.68 8 0 8 C0 7.34 0 6.68 0 6 Z " fill="#0E94D0" transform="translate(305,79)"/>
<path d="M0 0 C6.64615385 1.47692308 6.64615385 1.47692308 8.4375 4.125 C8.7159375 5.053125 8.7159375 5.053125 9 6 C8.01 7.485 8.01 7.485 7 9 C6.60986284 10.9896995 6.26797351 12.99019869 6 15 C3.61874536 12.61874536 2.99813759 10.66142433 1.875 7.5 C1.52179688 6.5203125 1.16859375 5.540625 0.8046875 4.53125 C0 2 0 2 0 0 Z " fill="#0F95D0" transform="translate(79,306)"/>
<path d="M0 0 C0.8723412 2.99480917 1.10829766 5.63575911 1.0625 8.75 C1.05347656 9.54921875 1.04445313 10.3484375 1.03515625 11.171875 C1.02355469 11.77515625 1.01195313 12.3784375 1 13 C-1.31 13.33 -3.62 13.66 -6 14 C-6 14.99 -6 15.98 -6 17 C-6.66 17 -7.32 17 -8 17 C-6.3341708 10.83643195 -3.12194714 5.51740344 0 0 Z " fill="#0E97CE" transform="translate(94,159)"/>
<path d="M0 0 C3.44127061 1.5445703 6.18696142 3.582684 9.125 5.9375 C9.99382812 6.62714844 10.86265625 7.31679687 11.7578125 8.02734375 C14 10 14 10 16 13 C13.6875 13.6875 13.6875 13.6875 11 14 C9.1875 12.8125 9.1875 12.8125 8 11 C8 9.68 8 8.36 8 7 C6.02 6.34 4.04 5.68 2 5 C2 4.01 2 3.02 2 2 C1.34 2 0.68 2 0 2 C0 1.34 0 0.68 0 0 Z " fill="#1990C2" transform="translate(353,103)"/>
<path d="M0 0 C5.29012124 4.40843437 10.18808428 9.07559794 15 14 C14.67 14.66 14.34 15.32 14 16 C12.68 15.67 11.36 15.34 10 15 C10 13.68 10 12.36 10 11 C7.03 10.67 4.06 10.34 1 10 C1.66 8.35 2.32 6.7 3 5 C2.2575 4.319375 2.2575 4.319375 1.5 3.625 C0 2 0 2 0 0 Z " fill="#1492CA" transform="translate(370,116)"/>
<path d="M0 0 C1.32 0.33 2.64 0.66 4 1 C1.89746067 2.79360702 -0.20694333 4.58494119 -2.3125 6.375 C-3.20485352 7.13683594 -3.20485352 7.13683594 -4.11523438 7.9140625 C-4.69208984 8.40390625 -5.26894531 8.89375 -5.86328125 9.3984375 C-6.39219971 9.84880371 -6.92111816 10.29916992 -7.46606445 10.76318359 C-8.91162467 11.92874273 -10.45494456 12.96996304 -12 14 C-12.625 12.125 -12.625 12.125 -13 10 C-11 8 -11 8 -8 7 C-7.67 6.34 -7.34 5.68 -7 5 C-5.68 5 -4.36 5 -3 5 C-3.33 4.01 -3.66 3.02 -4 2 C-2.68 2 -1.36 2 0 2 C0 1.34 0 0.68 0 0 Z " fill="#1693CA" transform="translate(165,139)"/>
<path d="M0 0 C2.08432499 3.12648749 3.28558611 6.05730868 4.625 9.5625 C5.07101563 10.71878906 5.51703125 11.87507813 5.9765625 13.06640625 C7 16 7 16 7 18 C5.35 18 3.7 18 2 18 C1.11932977 14.25715154 1 10.83333136 1 7 C0.67 6.67 0.34 6.34 0 6 C-0.04080783 4.00041636 -0.04254356 1.99954746 0 0 Z " fill="#1393CB" transform="translate(119,291)"/>
<path d="M0 0 C0.33 0 0.66 0 1 0 C1.50944993 2.81107194 2.0077016 5.62341589 2.5 8.4375 C2.64308594 9.22060547 2.78617187 10.00371094 2.93359375 10.81054688 C3.87971603 16.28454005 4.13345719 21.44484438 4 27 C1.23468808 24.23468808 1.63630986 22.29102737 1.4375 18.4375 C1.57774774 14.39913054 1.57774774 14.39913054 0 11 C-0.07226502 9.14712498 -0.0838122 7.29166122 -0.0625 5.4375 C-0.05347656 4.42558594 -0.04445313 3.41367188 -0.03515625 2.37109375 C-0.02355469 1.58863281 -0.01195312 0.80617187 0 0 Z " fill="#1D92C7" transform="translate(425,212)"/>
<path d="M0 0 C0.33 1.32 0.66 2.64 1 4 C1.66 4 2.32 4 3 4 C2.67 4.66 2.34 5.32 2 6 C2.33 6.66 2.66 7.32 3 8 C1.824375 8.4021875 1.824375 8.4021875 0.625 8.8125 C-2.28114923 9.84814432 -2.28114923 9.84814432 -4 13 C-4.66 13 -5.32 13 -6 13 C-4.31326082 8.50202887 -2.18326108 4.27113698 0 0 Z " fill="#1394CE" transform="translate(372,310)"/>
<path d="M0 0 C0.66 0.33 1.32 0.66 2 1 C1.79375 1.61875 1.5875 2.2375 1.375 2.875 C1.25125 3.57625 1.1275 4.2775 1 5 C1.66 5.66 2.32 6.32 3 7 C3.1953125 9.3828125 3.1953125 9.3828125 3.125 12.125 C3.10695313 13.03507813 3.08890625 13.94515625 3.0703125 14.8828125 C3.04710937 15.58148438 3.02390625 16.28015625 3 17 C1.45921385 14.01559439 0.13026724 10.98992242 -1.125 7.875 C-1.47820312 7.00617188 -1.83140625 6.13734375 -2.1953125 5.2421875 C-3 3 -3 3 -3 1 C-2.01 0.67 -1.02 0.34 0 0 Z " fill="#1394CA" transform="translate(378,194)"/>
<path d="M0 0 C2.49552403 2.27597646 4.06622986 4.60721178 5.6875 7.5625 C6.12449219 8.34753906 6.56148438 9.13257813 7.01171875 9.94140625 C8 12 8 12 8 14 C7.34 14 6.68 14 6 14 C4.64613064 12.34997172 3.31321858 10.6825613 2 9 C1.34 8.67 0.68 8.34 0 8 C0 5.36 0 2.72 0 0 Z " fill="#1691CA" transform="translate(402,155)"/>
<path d="M0 0 C0.33 0 0.66 0 1 0 C1.02688151 1.64574566 1.04634123 3.29161413 1.0625 4.9375 C1.07410156 5.85402344 1.08570313 6.77054687 1.09765625 7.71484375 C1 10 1 10 0 11 C-0.23075082 12.34747084 -0.41153063 13.70377565 -0.5625 15.0625 C-0.706875 16.361875 -0.85125 17.66125 -1 19 C-1.66 19 -2.32 19 -3 19 C-3.33 19.99 -3.66 20.98 -4 22 C-5.58397778 18.83204444 -4.05968488 15.93413721 -3.125 12.6875 C-1.94173983 8.4808061 -0.78253764 4.30395704 0 0 Z " fill="#1D90C3" transform="translate(384,273)"/>
<path d="M0 0 C4.8274799 1.41292095 8.7162359 3.42974154 13 6 C13 6.33 13 6.66 13 7 C9.7 7.33 6.4 7.66 3 8 C3 7.34 3 6.68 3 6 C4.32 5.67 5.64 5.34 7 5 C5.68 4.67 4.36 4.34 3 4 C3 3.34 3 2.68 3 2 C2.01 2 1.02 2 0 2 C0 1.34 0 0.68 0 0 Z " fill="#2293C3" transform="translate(416,361)"/>
<path d="M0 0 C-2.79655447 1.45879493 -5.58256419 2.65385052 -8.5625 3.6875 C-9.32691406 3.95949219 -10.09132812 4.23148437 -10.87890625 4.51171875 C-13 5 -13 5 -16 4 C-11.9540509 -2.06892366 -6.43480751 -1.10944957 0 0 Z " fill="#1695C8" transform="translate(216,117)"/>
<path d="M0 0 C1.15224028 0.92961422 2.29659176 1.8690125 3.4375 2.8125 C4.07558594 3.33457031 4.71367187 3.85664063 5.37109375 4.39453125 C7 6 7 6 8 9 C7.07796291 11.36522558 6.08301035 13.70401807 5 16 C4.67 16 4.34 16 4 16 C4 12.7 4 9.4 4 6 C3.01 5.67 2.02 5.34 1 5 C0.67 3.35 0.34 1.7 0 0 Z " fill="#1893CA" transform="translate(149,343)"/>
<path d="M0 0 C-0.9375 2.5 -0.9375 2.5 -3 5 C-6.03816258 5.45787911 -8.94925785 5.28780586 -12 5 C-4.28571429 -1.42857143 -4.28571429 -1.42857143 0 0 Z " fill="#1095CF" transform="translate(171,90)"/>
<path d="M0 0 C2.6875 -0.5 2.6875 -0.5 6 0 C8.09799313 2.43913022 9.50405635 5.16529519 11 8 C11.99 9.485 11.99 9.485 13 11 C9.54691313 9.48729451 7.04375621 7.45279358 4.25 4.9375 C3.45078125 4.22464844 2.6515625 3.51179688 1.828125 2.77734375 C1.22484375 2.19082031 0.6215625 1.60429687 0 1 C0 0.67 0 0.34 0 0 Z " fill="#1694C8" transform="translate(125,379)"/>
<path d="M0 0 C1.32 0.33 2.64 0.66 4 1 C4 1.66 4 2.32 4 3 C7.96 3 11.92 3 16 3 C16 3.33 16 3.66 16 4 C8.08 4.495 8.08 4.495 0 5 C0 3.35 0 1.7 0 0 Z " fill="#1696CE" transform="translate(368,370)"/>
<path d="M0 0 C0.33 1.32 0.66 2.64 1 4 C-0.32 4.33 -1.64 4.66 -3 5 C-3 5.66 -3 6.32 -3 7 C-4.64453125 8.5078125 -4.64453125 8.5078125 -6.8125 10.125 C-7.52019531 10.66382812 -8.22789063 11.20265625 -8.95703125 11.7578125 C-11 13 -11 13 -14 13 C-9.38 8.71 -4.76 4.42 0 0 Z " fill="#1E92C0" transform="translate(133,112)"/>
<path d="M0 0 C0.625 1.875 0.625 1.875 1 4 C0.34 4.66 -0.32 5.32 -1 6 C-1 7.32 -1 8.64 -1 10 C-2.65 10.33 -4.3 10.66 -6 11 C-4.54955729 6.89041233 -2.48889248 3.56741255 0 0 Z " fill="#1394CD" transform="translate(101,148)"/>
<path d="M0 0 C-4.5 4 -4.5 4 -9 4 C-8.625 2.0625 -8.625 2.0625 -8 0 C-5.13822943 -1.43088528 -3.06624227 -0.59991697 0 0 Z " fill="#1094CB" transform="translate(180,132)"/>
<path d="M0 0 C1.65 0 3.3 0 5 0 C5 3.66666667 5 7.33333333 5 11 C2.03947516 7.63576723 1.07710178 4.30840713 0 0 Z " fill="#0E95CD" transform="translate(368,179)"/>
<path d="M0 0 C0.66 0 1.32 0 2 0 C2.33 0.99 2.66 1.98 3 3 C1.875 4.5 1.875 4.5 0 6 C-3.1875 6.1875 -3.1875 6.1875 -6 6 C-4 4 -2 2 0 0 Z " fill="#1392D2" transform="translate(146,102)"/>
<path d="M0 0 C3 1 3 1 4.16796875 2.99609375 C4.50441406 3.80175781 4.84085937 4.60742188 5.1875 5.4375 C5.53167969 6.24058594 5.87585938 7.04367187 6.23046875 7.87109375 C7 10 7 10 7 12 C6.34 12 5.68 12 5 12 C4.67 10.35 4.34 8.7 4 7 C3.34 7 2.68 7 2 7 C0 5 0 5 -0.125 2.375 C-0.08375 1.59125 -0.0425 0.8075 0 0 Z " fill="#2497C4" transform="translate(349,293)"/>
<path d="M0 0 C1.31223496 3.93670488 0.24296256 6.12488144 -1 10 C-4.875 8.25 -4.875 8.25 -6 6 C-5.34 6 -4.68 6 -4 6 C-4 5.34 -4 4.68 -4 4 C-3.34 4 -2.68 4 -2 4 C-1.34 2.68 -0.68 1.36 0 0 Z " fill="#1A93C5" transform="translate(144,384)"/>
<path d="M0 0 C2.875 0.25 2.875 0.25 6 1 C7.4375 2.875 7.4375 2.875 8 5 C7.67 5.99 7.34 6.98 7 8 C5.83035398 6.8572081 4.66435444 5.71068285 3.5 4.5625 C2.8503125 3.92441406 2.200625 3.28632813 1.53125 2.62890625 C0 1 0 1 0 0 Z " fill="#1692C8" transform="translate(117,371)"/>
<path d="M0 0 C5.75 1.625 5.75 1.625 8 5 C5.6875 5.6875 5.6875 5.6875 3 6 C1.1875 4.75 1.1875 4.75 0 3 C0 2.01 0 1.02 0 0 Z " fill="#0C94CB" transform="translate(361,111)"/>
<path d="M0 0 C0 3.81094059 -1.00717021 5.77024137 -3 9 C-5.6875 10.375 -5.6875 10.375 -8 11 C-6.63629701 8.00779732 -5.05091917 5.70973471 -2.875 3.25 C-2.33617188 2.63640625 -1.79734375 2.0228125 -1.2421875 1.390625 C-0.62730469 0.70226562 -0.62730469 0.70226562 0 0 Z " fill="#1A92C8" transform="translate(115,130)"/>
<path d="M0 0 C0 0.66 0 1.32 0 2 C-0.99 2 -1.98 2 -3 2 C-2.67 3.32 -2.34 4.64 -2 6 C-5.37462715 5.45276317 -7.08235 4.9451 -10 3 C-8.70990357 2.49596232 -7.41786211 1.99690074 -6.125 1.5 C-5.04605469 1.08234375 -5.04605469 1.08234375 -3.9453125 0.65625 C-2 0 -2 0 0 0 Z " fill="#1591CB" transform="translate(193,79)"/>
<path d="M0 0 C0.66 0.33 1.32 0.66 2 1 C1.21654285 2.17219543 0.42297164 3.33763668 -0.375 4.5 C-0.81585938 5.1496875 -1.25671875 5.799375 -1.7109375 6.46875 C-2.13632812 6.9740625 -2.56171875 7.479375 -3 8 C-3.66 8 -4.32 8 -5 8 C-4.125 3.25 -4.125 3.25 -3 1 C-2.01 0.67 -1.02 0.34 0 0 Z " fill="#1491CC" transform="translate(401,344)"/>
<path d="M0 0 C0.66 0 1.32 0 2 0 C2 1.32 2 2.64 2 4 C2.99 3.67 3.98 3.34 5 3 C5.625 4.8125 5.625 4.8125 6 7 C5.01 8.485 5.01 8.485 4 10 C0 3.375 0 3.375 0 0 Z " fill="#1D98CB" transform="translate(87,325)"/>
<path d="M0 0 C2.74277578 3.19990508 4.6302836 6.00499382 6 10 C4.35 9.67 2.7 9.34 1 9 C0.29925156 5.846632 0 3.27275026 0 0 Z " fill="#1495C5" transform="translate(131,318)"/>
<path d="M0 0 C3.39417765 3.12621626 5.6062718 5.56541027 7 10 C3 10 3 10 1 9 C1.20625 8.443125 1.4125 7.88625 1.625 7.3125 C2.10695211 4.340462 1.26565028 2.68020059 0 0 Z " fill="#1790C9" transform="translate(391,139)"/>
<path d="M0 0 C1.25541557 3.76624671 0.37061958 5.37188934 -1 9 C0.32 9.33 1.64 9.66 3 10 C1.02 10 -0.96 10 -3 10 C-3.36629408 5.72656908 -2.40814077 3.51187196 0 0 Z " fill="#1396CB" transform="translate(347,368)"/>
<path d="M0 0 C0.33 0 0.66 0 1 0 C1 1.65 1 3.3 1 5 C1.66 5.33 2.32 5.66 3 6 C2.01 6.495 2.01 6.495 1 7 C0.31068656 9.34907875 0.31068656 9.34907875 -0.125 12.0625 C-0.29257813 12.98160156 -0.46015625 13.90070313 -0.6328125 14.84765625 C-0.75398438 15.55792969 -0.87515625 16.26820313 -1 17 C-1.33 17 -1.66 17 -2 17 C-1.85786703 15.10388566 -1.71113093 13.20811606 -1.5625 11.3125 C-1.48128906 10.25675781 -1.40007812 9.20101562 -1.31640625 8.11328125 C-1.03548319 5.34913703 -0.59843148 2.71054259 0 0 Z " fill="#2193C2" transform="translate(73,213)"/>
<path d="M0 0 C3.93673644 1.31224548 6.22719294 2.91910327 9 6 C6.36 5.67 3.72 5.34 1 5 C0.67 3.35 0.34 1.7 0 0 Z " fill="#1D90C5" transform="translate(344,97)"/>
<path d="M0 0 C1.65 1.32 3.3 2.64 5 4 C4.34 5.32 3.68 6.64 3 8 C1.35 6.02 -0.3 4.04 -2 2 C-1.34 1.34 -0.68 0.68 0 0 Z " fill="#1593CB" transform="translate(109,358)"/>
<path d="M0 0 C4.15414253 1.22736029 6.43688534 2.327664 10 5 C6.37 4.67 2.74 4.34 -1 4 C-0.67 2.68 -0.34 1.36 0 0 Z " fill="#1691C6" transform="translate(402,354)"/>
<path d="M0 0 C0.66 1.32 1.32 2.64 2 4 C0.35 5.65 -1.3 7.3 -3 9 C-3.66 7.02 -4.32 5.04 -5 3 C-2.525 3.495 -2.525 3.495 0 4 C0 2.68 0 1.36 0 0 Z " fill="#1195CB" transform="translate(137,167)"/>
<path d="M0 0 C2.64 0 5.28 0 8 0 C5.37801226 2.15377564 3.35595828 3.40072174 0 4 C0 2.68 0 1.36 0 0 Z " fill="#1794C7" transform="translate(187,124)"/>
<path d="M0 0 C0 0.66 0 1.32 0 2 C-0.99 2.495 -0.99 2.495 -2 3 C-1.67 3.66 -1.34 4.32 -1 5 C-3.31 5 -5.62 5 -8 5 C-3.16129032 0 -3.16129032 0 0 0 Z " fill="#1492C9" transform="translate(159,95)"/>
<path d="M0 0 C2.29633824 3.44450737 2.54016485 5.93812283 3 10 C2.67 9.34 2.34 8.68 2 8 C1.01 7.67 0.02 7.34 -1 7 C-0.67 4.69 -0.34 2.38 0 0 Z " fill="#1593C9" transform="translate(419,190)"/>
<path d="M0 0 C0.66 0 1.32 0 2 0 C1.01 2.97 0.02 5.94 -1 9 C-1.33 9 -1.66 9 -2 9 C-2 7.02 -2 5.04 -2 3 C-1.34 3 -0.68 3 0 3 C0 2.01 0 1.02 0 0 Z " fill="#1D91C5" transform="translate(413,320)"/>
</svg>
